<svg xmlns:svg="http://www.w3.org/2000/svg" xmlns="http://www.w3.org/2000/svg" version="1.1" x="0" y="0" width="21" height="21" viewBox="0" overflow="visible" enable-background="new 0 0 21 21" xml:space="preserve"><path d="M16.9 11.6C17 11.3 17 10.9 17 10.5s0-0.8-0.1-1.1l1.5-1.1 0.2-0.7 -1.5-2.6 -0.7-0.2 -1.7 0.8c-0.6-0.5-1.2-0.9-2-1.1L12.5 2.5 12 2H9L8.5 2.5 8.3 4.4C7.6 4.7 6.9 5 6.3 5.5L4.6 4.8 3.9 5l-1.5 2.6 0.2 0.7 1.5 1.1C4 9.7 4 10.1 4 10.5s0 0.8 0.1 1.1l-1.5 1.1 -0.2 0.7 1.5 2.6 0.7 0.2 1.7-0.8c0.6 0.5 1.2 0.9 2 1.1l0.2 1.9L9 19h3l0.5-0.5 0.2-1.9c0.7-0.3 1.4-0.6 2-1.1l1.7 0.8 0.7-0.2 1.5-2.6 -0.2-0.7L16.9 11.6zM14.2 10.5c0 2-1.6 3.7-3.6 3.7 -2 0-3.6-1.6-3.6-3.6s1.6-3.6 3.7-3.6C12.5 6.9 14.2 8.5 14.2 10.5z" fill="#000"/><rect opacity="0" fill="#888888" width="21" height="21"/></svg>